 <svg xmlns="http://www.w3.org/2000/svg" width="312" height="273" viewBox="0 0 312 273" fill="none">
  <path fill-rule="evenodd" clip-rule="evenodd" d="M312 -7.50352L312 52.5035L260.047 82.5L208.094 52.5035L208.094 -7.50352L260.047 -37.5L312 -7.50352ZM302.554 42.4765L302.554 -0.0518988L267.526 -0.0518984C272.893 18.4505 285.735 33.79 302.554 42.4765ZM217.54 42.4765C234.359 33.79 247.201 18.4505 252.568 -0.0518982L217.54 -0.0518978L217.54 42.4765ZM255.324 68.8668L255.324 18.0072C247.965 31.6404 236.692 42.8706 223.037 50.2202L255.324 68.8668ZM297.057 50.2061C283.398 42.86 272.129 31.6404 264.77 17.9931L264.77 68.8528L297.057 50.2061ZM230.438 -9.49836L289.634 -9.49836L260.036 -26.597L230.438 -9.49836ZM258 147.504L258 87.4965L206.047 57.5L154.094 87.4965L154.094 147.504L206.047 177.5L258 147.504ZM248.554 94.9481L248.554 137.477C231.735 128.79 218.893 113.451 213.526 94.9481L248.554 94.9481ZM198.568 94.9481C193.201 113.451 180.359 128.79 163.54 137.477L163.54 94.9481L198.568 94.9481ZM201.324 113.007L201.324 163.867L169.037 145.22C182.692 137.871 193.965 126.64 201.324 113.007ZM210.77 112.993C218.129 126.64 229.398 137.86 243.057 145.206L210.77 163.853L210.77 112.993ZM235.634 85.5016L176.438 85.5016L206.036 68.403L235.634 85.5016ZM149.094 87.4965L149.094 147.504L97.1406 177.5L45.1875 147.504L45.1875 87.4965L97.1406 57.5L149.094 87.4965ZM139.648 137.477L139.648 94.9481L104.619 94.9481C109.986 113.451 122.829 128.79 139.648 137.477ZM54.6335 137.477C71.4526 128.79 84.2949 113.451 89.6619 94.9481L54.6335 94.9481L54.6335 137.477ZM92.4176 163.867L92.4176 113.007C85.0586 126.64 73.786 137.871 60.1308 145.22L92.4176 163.867ZM134.15 145.206C120.492 137.86 109.223 126.64 101.864 112.993L101.864 163.853L134.15 145.206ZM97.1301 68.403L67.532 85.5016L126.728 85.5016L97.1301 68.403ZM94 242.504L94 182.496L42.0469 152.5L-9.90625 182.496L-9.90625 242.504L42.0469 272.5L94 242.504ZM84.554 189.948L84.554 232.477C67.7349 223.79 54.8926 208.451 49.5256 189.948L84.554 189.948ZM34.5682 189.948C29.2011 208.451 16.3589 223.79 -0.460232 232.477L-0.460233 189.948L34.5682 189.948ZM37.3239 208.007L37.3239 258.867L5.03705 240.22C18.6922 232.871 29.9648 221.64 37.3239 208.007ZM46.7699 207.993C54.1289 221.64 65.398 232.86 79.0567 240.206L46.7699 258.853L46.7699 207.993ZM12.4383 180.502L42.0363 163.403L71.6343 180.502L12.4383 180.502ZM40.0938 147.504L40.0938 87.4965L-11.8594 57.5L-63.8125 87.4965L-63.8125 147.504L-11.8594 177.5L40.0938 147.504ZM30.6477 94.9481L30.6477 137.477C13.8286 128.79 0.98636 113.451 -4.38067 94.9481L30.6477 94.9481ZM-19.3381 94.9481C-24.7051 113.451 -37.5474 128.79 -54.3665 137.477L-54.3665 94.9481L-19.3381 94.9481ZM-16.5824 113.007L-16.5824 163.867L-48.8692 145.22C-35.214 137.871 -23.9414 126.64 -16.5824 113.007ZM-7.13635 112.993C0.222658 126.64 11.4917 137.86 25.1505 145.206L-7.13635 163.853L-7.13635 112.993ZM-41.468 85.5016L-11.8699 68.403L17.7281 85.5016L-41.468 85.5016ZM94.0938 -7.50352L94.0938 52.5035L42.1406 82.5L-9.8125 52.5035L-9.8125 -7.50352L42.1406 -37.5L94.0938 -7.50352ZM84.6477 42.4765L84.6477 -0.0518962L49.6193 -0.0518958C54.9864 18.4505 67.8286 33.79 84.6477 42.4765ZM-0.366485 42.4765C16.4526 33.79 29.2949 18.4505 34.6619 -0.0518956L-0.366485 -0.0518952L-0.366485 42.4765ZM37.4176 68.8668L37.4176 18.0072C30.0586 31.6404 18.786 42.8706 5.1308 50.2202L37.4176 68.8668ZM79.1505 50.2061C65.4917 42.86 54.2227 31.6404 46.8636 17.9931L46.8636 68.8528L79.1505 50.2061ZM12.532 -9.49835L71.7281 -9.49835L42.1301 -26.597L12.532 -9.49835ZM203.094 52.5035L203.094 -7.50352L151.141 -37.5L99.1875 -7.50352L99.1875 52.5035L151.141 82.5L203.094 52.5035ZM193.648 -0.0518975L193.648 42.4765C176.829 33.79 163.986 18.4505 158.619 -0.0518971L193.648 -0.0518975ZM143.662 -0.0518969C138.295 18.4505 125.453 33.79 108.634 42.4765L108.634 -0.0518965L143.662 -0.0518969ZM146.418 18.0072L146.418 68.8668L114.131 50.2202C127.786 42.8706 139.059 31.6404 146.418 18.0072ZM155.864 17.9931C163.223 31.6404 174.492 42.86 188.15 50.2061L155.864 68.8528L155.864 17.9931ZM121.532 -9.49836L151.13 -26.597L180.728 -9.49836L121.532 -9.49836Z" fill="url(#paint0_linear_566_2416)"/>
  <defs>
    <linearGradient id="paint0_linear_566_2416" x1="232.5" y1="242" x2="4.00002" y2="1.50001" gradientUnits="userSpaceOnUse">
      <stop stop-color="#FFEAF1" stop-opacity="0"/>
      <stop offset="1" stop-color="#DC146F"/>
    </linearGradient>
  </defs>
</svg>