<svg xmlns="http://www.w3.org/2000/svg" width="312" height="272" viewBox="0 0 312 272" fill="none">
  <path fill-rule="evenodd" clip-rule="evenodd" d="M8.44602 272.552L8.44602 273.552L9.44602 273.552L44.4744 273.552L45.8057 273.552L45.4348 272.273C39.9902 253.503 26.964 237.945 9.9049 229.135L8.44602 228.381L8.44602 230.023L8.44602 272.552ZM58.4714 272.273L58.1005 273.552L59.4318 273.552L94.4602 273.552L95.4602 273.552L95.4602 272.552L95.4602 230.023L95.4602 228.381L94.0014 229.135C76.9423 237.945 63.9161 253.503 58.4714 272.273ZM57.1763 202.767L55.6761 201.901L55.6761 203.633L55.6761 254.24L55.6761 254.493L55.6761 254.507L56.6761 254.507L56.7022 254.507L57.5561 254.968C64.8219 241.507 75.9529 230.418 89.4369 223.16L91.0158 222.311L89.4631 221.414L57.1763 202.767ZM56.6761 254.493C57.0018 253.889 57.3352 253.291 57.6761 252.697C64.8439 240.211 75.342 229.862 87.9368 222.842C88.2773 222.652 88.6194 222.465 88.963 222.28L87.9475 221.693L57.6761 204.211L56.6761 203.633L56.6761 204.788L56.6761 252.431L56.6761 254.493ZM48.2301 203.647L48.2301 254.254L48.2301 254.507L48.2301 254.521L47.2301 254.521L47.204 254.521L46.3499 254.981C39.0843 241.508 27.9571 230.429 14.4696 223.175L12.8899 222.325L14.4432 221.428L46.73 202.781L48.2301 201.915L48.2301 203.647ZM47.2301 254.507C46.9044 253.903 46.571 253.304 46.2301 252.709C39.0627 240.212 28.5675 229.872 15.9699 222.856C15.6292 222.666 15.287 222.479 14.9433 222.294L15.9589 221.707L46.2301 204.225L47.2301 203.647L47.2301 204.802L47.2301 252.444L47.2301 254.507ZM82.0619 282.864L85.2918 280.998L81.5617 280.998L22.6338 280.998L22.3657 280.998L22.3551 280.998L22.3516 280.998L22.3516 281.998L22.3516 282.023L21.8655 282.864L51.4635 299.963L51.9637 300.252L52.4639 299.963L82.0619 282.864ZM79.5626 281.998L24.3648 281.998L22.3657 281.998L24.0967 282.998L51.9637 299.097L79.8307 282.998L81.5617 281.998L79.5626 281.998ZM51.9531 310L-3.57704e-07 280.004L-1.07328e-06 219.996L51.9531 190L103.906 219.996L103.906 280.004L51.9531 310ZM1 279.426L0.999999 220.574L51.9531 191.155L102.906 220.574L102.906 279.426L51.9531 308.845L1 279.426ZM44.1762 271.552C38.7541 253.863 26.4726 239.16 10.446 230.55C10.1143 230.372 9.78094 230.196 9.44602 230.023L9.44602 231.151L9.44602 271.552L9.44602 272.552L10.446 272.552L43.4326 272.552L44.4744 272.552C44.3774 272.218 44.278 271.884 44.1762 271.552ZM60.4737 272.552L59.4318 272.552C59.5288 272.218 59.6282 271.884 59.7301 271.552C65.1521 253.863 77.4337 239.16 93.4602 230.55C93.792 230.372 94.1253 230.196 94.4602 230.023L94.4602 231.151L94.4602 271.552L94.4602 272.552L93.4602 272.552L60.4737 272.552ZM62.446 178.552L62.446 177.552L62.446 135.023L62.446 133.381L63.9049 134.135C80.964 142.945 93.9902 158.503 99.4348 177.273L99.8057 178.552L98.4744 178.552L63.446 178.552L62.446 178.552ZM112.101 178.552L112.471 177.273C117.916 158.503 130.942 142.945 148.001 134.135L149.46 133.381L149.46 135.023L149.46 177.552L149.46 178.552L148.46 178.552L113.432 178.552L112.101 178.552ZM109.676 106.901L111.176 107.767L143.463 126.414L145.016 127.311L143.437 128.16C129.953 135.418 118.822 146.507 111.556 159.968L110.702 159.507L110.676 159.507L109.676 159.507L109.676 159.493L109.676 159.24L109.676 108.633L109.676 106.901ZM111.676 157.697C111.335 158.291 111.002 158.889 110.676 159.493L110.676 157.431L110.676 109.788L110.676 108.633L111.676 109.211L141.948 126.693L142.963 127.28C142.619 127.465 142.277 127.652 141.937 127.842C129.342 134.862 118.844 145.211 111.676 157.697ZM102.23 159.254L102.23 108.647L102.23 106.915L100.73 107.781L68.4432 126.428L66.8899 127.325L68.4696 128.175C81.9571 135.429 93.0843 146.508 100.35 159.981L101.204 159.521L101.23 159.521L102.23 159.521L102.23 159.507L102.23 159.254ZM100.23 157.709C100.571 158.304 100.904 158.903 101.23 159.507L101.23 157.444L101.23 109.802L101.23 108.647L100.23 109.225L69.9589 126.707L68.9433 127.294C69.287 127.479 69.6292 127.666 69.9699 127.856C82.5675 134.872 93.0627 145.212 100.23 157.709ZM139.292 185.998L136.062 187.864L106.464 204.963L105.964 205.252L105.463 204.963L75.8655 187.864L76.3516 187.023L76.3516 186.998L76.3516 185.998L76.3551 185.998L76.3657 185.998L76.6338 185.998L135.562 185.998L139.292 185.998ZM78.3648 186.998L133.563 186.998L135.562 186.998L133.831 187.998L105.964 204.097L78.0967 187.998L76.3657 186.998L78.3648 186.998ZM54 185.004L105.953 215L157.906 185.004L157.906 124.996L105.953 95L54 124.996L54 185.004ZM55 125.574L55 184.426L105.953 213.845L156.906 184.426L156.906 125.574L105.953 96.1547L55 125.574ZM64.446 135.55C80.4726 144.16 92.7541 158.863 98.1762 176.552C98.278 176.884 98.3774 177.218 98.4744 177.552L97.4326 177.552L64.446 177.552L63.446 177.552L63.446 176.552L63.446 136.151L63.446 135.023C63.7809 135.196 64.1143 135.372 64.446 135.55ZM113.432 177.552L114.474 177.552L147.46 177.552L148.46 177.552L148.46 176.552L148.46 136.151L148.46 135.023C148.125 135.196 147.792 135.372 147.46 135.55C131.434 144.16 119.152 158.863 113.73 176.552C113.628 176.884 113.529 177.218 113.432 177.552ZM171.352 177.552L171.352 178.552L172.352 178.552L207.381 178.552L208.712 178.552L208.341 177.273C202.896 158.503 189.87 142.945 172.811 134.135L171.352 133.381L171.352 135.023L171.352 177.552ZM221.378 177.273L221.007 178.552L222.338 178.552L257.366 178.552L258.366 178.552L258.366 177.552L258.366 135.023L258.366 133.381L256.908 134.135C239.849 142.945 226.822 158.503 221.378 177.273ZM220.083 107.767L218.582 106.901L218.582 108.633L218.582 159.24L218.582 159.493L218.582 159.507L219.582 159.507L219.608 159.507L220.462 159.968C227.728 146.507 238.859 135.418 252.343 128.16L253.922 127.311L252.369 126.414L220.083 107.767ZM219.582 159.493C219.908 158.889 220.241 158.291 220.582 157.697C227.75 145.211 238.248 134.862 250.843 127.842C251.184 127.652 251.526 127.465 251.869 127.28L250.854 126.693L220.582 109.211L219.582 108.633L219.582 109.788L219.582 157.431L219.582 159.493ZM211.136 108.647L211.136 159.254L211.136 159.507L211.136 159.521L210.136 159.521L210.11 159.521L209.256 159.981C201.991 146.508 190.863 135.429 177.376 128.175L175.796 127.325L177.349 126.428L209.636 107.781L211.136 106.915L211.136 108.647ZM210.136 159.507C209.811 158.903 209.477 158.304 209.136 157.709C201.969 145.212 191.474 134.872 178.876 127.856C178.535 127.666 178.193 127.479 177.85 127.294L178.865 126.707L209.136 109.225L210.136 108.647L210.136 109.802L210.136 157.444L210.136 159.507ZM244.968 187.864L248.198 185.998L244.468 185.998L185.54 185.998L185.272 185.998L185.261 185.998L185.258 185.998L185.258 186.998L185.258 187.023L184.772 187.864L214.37 204.963L214.87 205.252L215.37 204.963L244.968 187.864ZM242.469 186.998L187.271 186.998L185.272 186.998L187.003 187.998L214.87 204.097L242.737 187.998L244.468 186.998L242.469 186.998ZM214.859 215L162.906 185.004L162.906 124.996L214.859 95L266.812 124.996L266.812 185.004L214.859 215ZM163.906 184.426L163.906 125.574L214.859 96.1547L265.812 125.574L265.812 184.426L214.859 213.845L163.906 184.426ZM207.082 176.552C201.66 158.863 189.379 144.16 173.352 135.55C173.021 135.372 172.687 135.196 172.352 135.023L172.352 136.151L172.352 176.552L172.352 177.552L173.352 177.552L206.339 177.552L207.381 177.552C207.284 177.218 207.184 176.884 207.082 176.552ZM223.38 177.552L222.338 177.552C222.435 177.218 222.534 176.884 222.636 176.552C228.058 158.863 240.34 144.16 256.366 135.55C256.698 135.372 257.032 135.196 257.366 135.023L257.366 136.151L257.366 176.552L257.366 177.552L256.366 177.552L223.38 177.552ZM226.446 83.5519L226.446 82.5519L226.446 40.0235L226.446 38.3815L227.905 39.1349C244.964 47.9454 257.99 63.5033 263.435 82.2733L263.806 83.5519L262.474 83.5519L227.446 83.5519L226.446 83.5519ZM276.101 83.5519L276.471 82.2733C281.916 63.5033 294.942 47.9454 312.001 39.1349L313.46 38.3815L313.46 40.0235L313.46 82.5519L313.46 83.5519L312.46 83.5519L277.432 83.5519L276.101 83.5519ZM273.676 11.9008L275.176 12.7672L307.463 31.4138L309.016 32.3106L307.437 33.1604C293.953 40.4178 282.822 51.5075 275.556 64.9678L274.702 64.5069L274.676 64.5069L273.676 64.5069L273.676 64.4928L273.676 64.2401L273.676 13.6332L273.676 11.9008ZM275.676 62.6968C275.335 63.2907 275.002 63.8894 274.676 64.4928L274.676 62.4311L274.676 14.788L274.676 13.6332L275.676 14.2107L305.948 31.6934L306.963 32.2798C306.803 32.366 306.643 32.4526 306.484 32.5399C306.301 32.6399 306.119 32.7406 305.937 32.8419C293.342 39.8622 282.844 50.2107 275.676 62.6968ZM266.23 64.2544L266.23 13.6472L266.23 11.9149L264.73 12.7813L232.443 31.4279L230.89 32.325L232.47 33.1746C245.957 40.4286 257.084 51.5075 264.35 64.9815L265.204 64.5209L265.23 64.5209L266.23 64.5209L266.23 64.5069L266.23 64.2544ZM264.23 62.7091C264.571 63.3035 264.904 63.9028 265.23 64.5069L265.23 62.4436L265.23 14.802L265.23 13.6472L264.23 14.2248L233.959 31.7073L232.943 32.2939C233.287 32.4788 233.629 32.6661 233.97 32.8558C246.568 39.8724 257.063 50.212 264.23 62.7091ZM303.292 90.9983L300.062 92.8643L270.464 109.963L269.964 110.252L269.463 109.963L239.865 92.8643L240.352 92.0227L240.352 91.9983L240.352 90.9983L240.355 90.9983L240.366 90.9983L240.634 90.9983L299.562 90.9983L303.292 90.9983ZM242.365 91.9983L297.563 91.9983L299.562 91.9983L297.831 92.9983L269.964 109.097L242.097 92.9983L240.366 91.9983L242.365 91.9983ZM218 90.0035L269.953 120L321.906 90.0035L321.906 29.9965L269.953 -3.21916e-06L218 29.9965L218 90.0035ZM219 30.5738L219 89.4262L269.953 118.845L320.906 89.4262L320.906 30.5738L269.953 1.15472L219 30.5738ZM228.446 40.5503C244.473 49.1604 256.754 63.8634 262.176 81.5519C262.278 81.8842 262.377 82.2175 262.474 82.5519L261.433 82.5519L228.446 82.5519L227.446 82.5519L227.446 81.5519L227.446 41.1512L227.446 40.0235C227.781 40.1964 228.114 40.372 228.446 40.5503ZM277.432 82.5519L278.474 82.5519L311.46 82.5519L312.46 82.5519L312.46 81.5519L312.46 41.1511L312.46 40.0235C312.125 40.1964 311.792 40.372 311.46 40.5503C295.434 49.1604 283.152 63.8634 277.73 81.5519C277.628 81.8842 277.529 82.2175 277.432 82.5519ZM280.352 178.552L280.352 177.552L280.352 135.023L280.352 133.381L281.811 134.135C298.87 142.945 311.896 158.503 317.341 177.273L317.712 178.552L316.381 178.552L281.352 178.552L280.352 178.552ZM330.007 178.552L330.378 177.273C335.822 158.503 348.849 142.945 365.908 134.135L367.366 133.381L367.366 135.023L367.366 177.552L367.366 178.552L366.366 178.552L331.338 178.552L330.007 178.552ZM327.582 106.901L329.083 107.767L361.369 126.414L362.922 127.311L361.343 128.16C347.859 135.418 336.728 146.507 329.462 159.968L328.608 159.507L328.582 159.507L327.582 159.507L327.582 159.493L327.582 159.24L327.582 108.633L327.582 106.901ZM329.582 157.697C329.241 158.291 328.908 158.889 328.582 159.493L328.582 157.431L328.582 109.788L328.582 108.633L329.582 109.211L359.854 126.693L360.869 127.28C360.526 127.465 360.184 127.652 359.843 127.842C347.248 134.862 336.75 145.211 329.582 157.697ZM320.136 159.254L320.136 108.647L320.136 106.915L318.636 107.781L286.349 126.428L284.796 127.325L286.376 128.175C299.863 135.429 310.991 146.508 318.256 159.981L319.11 159.521L319.136 159.521L320.136 159.521L320.136 159.507L320.136 159.254ZM318.136 157.709C318.477 158.304 318.811 158.903 319.136 159.507L319.136 157.444L319.136 109.802L319.136 108.647L318.136 109.225L287.865 126.707L286.85 127.294C287.193 127.479 287.535 127.666 287.876 127.856C300.474 134.872 310.969 145.212 318.136 157.709ZM357.198 185.998L353.968 187.864L324.37 204.963L323.87 205.252L323.37 204.963L293.772 187.864L294.258 187.023L294.258 186.998L294.258 185.998L294.261 185.998L294.272 185.998L294.54 185.998L353.468 185.998L357.198 185.998ZM296.271 186.998L351.469 186.998L353.468 186.998L351.737 187.998L323.87 204.097L296.003 187.998L294.272 186.998L296.271 186.998ZM271.906 185.004L323.859 215L375.812 185.004L375.812 124.996L323.859 95L271.906 124.996L271.906 185.004ZM272.906 125.574L272.906 184.426L323.859 213.845L374.812 184.426L374.812 125.574L323.859 96.1547L272.906 125.574ZM282.352 135.55C298.379 144.16 310.66 158.863 316.082 176.552C316.184 176.884 316.284 177.218 316.381 177.552L315.339 177.552L282.352 177.552L281.352 177.552L281.352 176.552L281.352 136.151L281.352 135.023C281.687 135.196 282.021 135.372 282.352 135.55ZM331.338 177.552L332.38 177.552L365.366 177.552L366.366 177.552L366.366 176.552L366.366 136.151L366.366 135.023C366.032 135.196 365.698 135.372 365.366 135.55C349.34 144.16 337.058 158.863 331.636 176.552C331.534 176.884 331.435 177.218 331.338 177.552ZM226.352 272.552L226.352 273.552L227.352 273.552L262.381 273.552L263.712 273.552L263.341 272.273C257.896 253.503 244.87 237.945 227.811 229.135L226.352 228.381L226.352 230.023L226.352 272.552ZM276.378 272.273L276.007 273.552L277.338 273.552L312.366 273.552L313.366 273.552L313.366 272.552L313.366 230.023L313.366 228.381L311.908 229.135C294.849 237.945 281.822 253.503 276.378 272.273ZM275.083 202.767L273.582 201.901L273.582 203.633L273.582 254.24L273.582 254.493L273.582 254.507L274.582 254.507L274.608 254.507L275.462 254.968C282.728 241.507 293.859 230.418 307.343 223.16L308.922 222.311L307.369 221.414L275.083 202.767ZM274.582 254.493C274.908 253.889 275.241 253.291 275.582 252.697C282.75 240.211 293.248 229.862 305.843 222.842C306.184 222.652 306.526 222.465 306.869 222.28L305.854 221.693L275.582 204.211L274.582 203.633L274.582 204.788L274.582 252.431L274.582 254.493ZM266.136 203.647L266.136 254.254L266.136 254.507L266.136 254.521L265.136 254.521L265.11 254.521L264.256 254.981C256.991 241.508 245.863 230.429 232.376 223.175L230.796 222.325L232.349 221.428L264.636 202.781L266.136 201.915L266.136 203.647ZM265.136 254.507C264.811 253.903 264.477 253.304 264.136 252.709C256.969 240.212 246.474 229.872 233.876 222.856C233.535 222.666 233.193 222.479 232.85 222.294L233.865 221.707L264.136 204.225L265.136 203.647L265.136 204.802L265.136 252.444L265.136 254.507ZM299.968 282.864L303.198 280.998L299.468 280.998L240.54 280.998L240.272 280.998L240.261 280.998L240.258 280.998L240.258 281.998L240.258 282.023L239.772 282.864L269.37 299.963L269.87 300.252L270.37 299.963L299.968 282.864ZM297.469 281.998L242.271 281.998L240.272 281.998L242.003 282.998L269.87 299.097L297.737 282.998L299.468 281.998L297.469 281.998ZM269.859 310L217.906 280.004L217.906 219.996L269.859 190L321.812 219.996L321.812 280.004L269.859 310ZM218.906 279.426L218.906 220.574L269.859 191.155L320.812 220.574L320.812 279.426L269.859 308.845L218.906 279.426ZM262.082 271.552C256.66 253.863 244.379 239.16 228.352 230.55C228.021 230.372 227.687 230.196 227.352 230.023L227.352 231.151L227.352 271.552L227.352 272.552L228.352 272.552L261.339 272.552L262.381 272.552C262.284 272.218 262.184 271.884 262.082 271.552ZM278.38 272.552L277.338 272.552C277.435 272.218 277.534 271.884 277.636 271.552C283.058 253.863 295.34 239.16 311.366 230.55C311.698 230.372 312.032 230.196 312.366 230.023L312.366 231.151L312.366 271.552L312.366 272.552L311.366 272.552L278.38 272.552ZM117.352 273.552L117.352 272.552L117.352 230.023L117.352 228.381L118.811 229.135C135.87 237.945 148.896 253.503 154.341 272.273L154.712 273.552L153.381 273.552L118.352 273.552L117.352 273.552ZM167.007 273.552L167.378 272.273C172.822 253.503 185.849 237.945 202.908 229.135L204.366 228.381L204.366 230.023L204.366 272.552L204.366 273.552L203.366 273.552L168.338 273.552L167.007 273.552ZM164.582 201.901L166.083 202.767L198.369 221.414L199.922 222.311L198.343 223.16C184.859 230.418 173.728 241.507 166.462 254.968L165.608 254.507L165.582 254.507L164.582 254.507L164.582 254.493L164.582 254.24L164.582 203.633L164.582 201.901ZM166.582 252.697C166.241 253.291 165.908 253.889 165.582 254.493L165.582 252.431L165.582 204.788L165.582 203.633L166.582 204.211L196.854 221.693L197.869 222.28C197.526 222.465 197.184 222.652 196.843 222.842C184.248 229.862 173.75 240.211 166.582 252.697ZM157.136 254.254L157.136 203.647L157.136 201.915L155.636 202.781L123.349 221.428L121.796 222.325L123.376 223.175C136.863 230.429 147.991 241.508 155.256 254.981L156.11 254.521L156.136 254.521L157.136 254.521L157.136 254.507L157.136 254.254ZM155.136 252.709C155.477 253.304 155.811 253.903 156.136 254.507L156.136 252.444L156.136 204.802L156.136 203.647L155.136 204.225L124.865 221.707L123.85 222.294C124.193 222.479 124.535 222.666 124.876 222.856C137.474 229.872 147.969 240.212 155.136 252.709ZM194.198 280.998L190.968 282.864L161.37 299.963L160.87 300.252L160.37 299.963L130.772 282.864L131.258 282.023L131.258 281.998L131.258 280.998L131.261 280.998L131.272 280.998L131.54 280.998L190.468 280.998L194.198 280.998ZM188.469 281.998L190.468 281.998L188.737 282.998L160.87 299.097L133.003 282.998L131.272 281.998L133.271 281.998L188.469 281.998ZM108.906 280.004L160.859 310L212.812 280.004L212.812 219.996L160.859 190L108.906 219.996L108.906 280.004ZM109.906 220.574L109.906 279.426L160.859 308.845L211.812 279.426L211.812 220.574L160.859 191.155L109.906 220.574ZM119.352 230.55C135.379 239.16 147.66 253.863 153.082 271.552C153.184 271.884 153.284 272.218 153.381 272.552L152.339 272.552L119.352 272.552L118.352 272.552L118.352 271.552L118.352 231.151L118.352 230.023C118.687 230.196 119.021 230.372 119.352 230.55ZM168.338 272.552L169.38 272.552L202.366 272.552L203.366 272.552L203.366 271.552L203.366 231.151L203.366 230.023C203.032 230.196 202.698 230.372 202.366 230.55C186.34 239.16 174.058 253.863 168.636 271.552C168.534 271.884 168.435 272.218 168.338 272.552Z" fill="url(#paint0_linear_566_1821)"/>
  <defs>
    <linearGradient id="paint0_linear_566_1821" x1="105" y1="65.5" x2="305.5" y2="266" gradientUnits="userSpaceOnUse">
      <stop stop-color="#FFEAF1" stop-opacity="0"/>
      <stop offset="1" stop-color="#DC146F"/>
    </linearGradient>
  </defs>
</svg>